{
    "asset" : {
        "generator" : "Khronos glTF Blender I/O v1.6.16",
        "version" : "2.0"
    },
    "scene" : 0,
    "scenes" : [
        {
            "name" : "Scene",
            "nodes" : [
                0,
                1,
                2,
                3,
                4,
                5,
                6
            ]
        }
    ],
    "nodes" : [
        {
            "mesh" : 0,
            "name" : "Cone"
        },
        {
            "mesh" : 1,
            "name" : "Cube.001"
        },
        {
            "mesh" : 2,
            "name" : "Floor"
        },
        {
            "mesh" : 3,
            "name" : "Icosphere"
        },
        {
            "mesh" : 4,
            "name" : "Torus.001"
        },
        {
            "mesh" : 5,
            "name" : "Wall-Back"
        },
        {
            "mesh" : 6,
            "name" : "Wall-Left"
        }
    ],
    "materials" : [
        {
            "doubleSided" : true,
            "name" : "orange",
            "pbrMetallicRoughness" : {
                "baseColorFactor" : [
                    0.8000000715255737,
                    0.2865109145641327,
                    0.04052121937274933,
                    1
                ],
                "metallicFactor" : 0
            }
        },
        {
            "doubleSided" : true,
            "name" : "blue",
            "pbrMetallicRoughness" : {
                "baseColorFactor" : [
                    0.023327212780714035,
                    0.0024533658288419247,
                    0.8000000715255737,
                    1
                ],
                "metallicFactor" : 0
            }
        },
        {
            "doubleSided" : true,
            "name" : "grey",
            "pbrMetallicRoughness" : {
                "baseColorFactor" : [
                    0.800000011920929,
                    0.800000011920929,
                    0.800000011920929,
                    1
                ],
                "metallicFactor" : 0
            }
        },
        {
            "doubleSided" : true,
            "name" : "yellow",
            "pbrMetallicRoughness" : {
                "baseColorFactor" : [
                    0.7113735675811768,
                    0.8000000715255737,
                    0.08066464960575104,
                    1
                ],
                "metallicFactor" : 0
            }
        },
        {
            "doubleSided" : true,
            "name" : "pink",
            "pbrMetallicRoughness" : {
                "baseColorFactor" : [
                    0.8000000715255737,
                    0.10542576760053635,
                    0.640853226184845,
                    1
                ],
                "metallicFactor" : 0
            }
        },
        {
            "doubleSided" : true,
            "name" : "red",
            "pbrMetallicRoughness" : {
                "baseColorFactor" : [
                    0.7300000190734863,
                    0.04263202100992203,
                    0.062490012496709824,
                    1
                ],
                "metallicFactor" : 0
            }
        },
        {
            "doubleSided" : true,
            "name" : "green",
            "pbrMetallicRoughness" : {
                "baseColorFactor" : [
                    0.35154321789741516,
                    0.8000000715255737,
                    0.35529372096061707,
                    1
                ],
                "metallicFactor" : 0
            }
        }
    ],
    "meshes" : [
        {
            "name" : "Cone",
            "primitives" : [
                {
                    "attributes" : {
                        "POSITION" : 0,
                        "NORMAL" : 1,
                        "TEXCOORD_0" : 2
                    },
                    "indices" : 3,
                    "material" : 0
                }
            ]
        },
        {
            "name" : "Cube.008",
            "primitives" : [
                {
                    "attributes" : {
                        "POSITION" : 4,
                        "NORMAL" : 5,
                        "TEXCOORD_0" : 6
                    },
                    "indices" : 7,
                    "material" : 1
                }
            ]
        },
        {
            "name" : "Plane.001",
            "primitives" : [
                {
                    "attributes" : {
                        "POSITION" : 8,
                        "NORMAL" : 9,
                        "TEXCOORD_0" : 10
                    },
                    "indices" : 11,
                    "material" : 2
                }
            ]
        },
        {
            "name" : "Icosphere",
            "primitives" : [
                {
                    "attributes" : {
                        "POSITION" : 12,
                        "NORMAL" : 13,
                        "TEXCOORD_0" : 14
                    },
                    "indices" : 15,
                    "material" : 3
                }
            ]
        },
        {
            "name" : "Torus.001",
            "primitives" : [
                {
                    "attributes" : {
                        "POSITION" : 16,
                        "NORMAL" : 17,
                        "TEXCOORD_0" : 18
                    },
                    "indices" : 19,
                    "material" : 4
                }
            ]
        },
        {
            "name" : "Plane.003",
            "primitives" : [
                {
                    "attributes" : {
                        "POSITION" : 20,
                        "NORMAL" : 21,
                        "TEXCOORD_0" : 22
                    },
                    "indices" : 11,
                    "material" : 5
                }
            ]
        },
        {
            "name" : "Plane.002",
            "primitives" : [
                {
                    "attributes" : {
                        "POSITION" : 23,
                        "NORMAL" : 24,
                        "TEXCOORD_0" : 25
                    },
                    "indices" : 26,
                    "material" : 6
                }
            ]
        }
    ],
    "accessors" : [
        {
            "bufferView" : 0,
            "componentType" : 5126,
            "count" : 65,
            "max" : [
                0.28747186064720154,
                6.085988246695706e-08,
                0.9030811190605164
            ],
            "min" : [
                -0.21252813935279846,
                -0.4999999403953552,
                0.40308108925819397
            ],
            "type" : "VEC3"
        },
        {
            "bufferView" : 1,
            "componentType" : 5126,
            "count" : 65,
            "type" : "VEC3"
        },
        {
            "bufferView" : 2,
            "componentType" : 5126,
            "count" : 65,
            "type" : "VEC2"
        },
        {
            "bufferView" : 3,
            "componentType" : 5123,
            "count" : 186,
            "type" : "SCALAR"
        },
        {
            "bufferView" : 4,
            "componentType" : 5126,
            "count" : 24,
            "max" : [
                0.2506127655506134,
                -2.2894317552868415e-08,
                -0.12311768531799316
            ],
            "min" : [
                -0.2493872344493866,
                -0.5000000596046448,
                -0.6231176853179932
            ],
            "type" : "VEC3"
        },
        {
            "bufferView" : 5,
            "componentType" : 5126,
            "count" : 24,
            "type" : "VEC3"
        },
        {
            "bufferView" : 6,
            "componentType" : 5126,
            "count" : 24,
            "type" : "VEC2"
        },
        {
            "bufferView" : 7,
            "componentType" : 5123,
            "count" : 36,
            "type" : "SCALAR"
        },
        {
            "bufferView" : 8,
            "componentType" : 5126,
            "count" : 4,
            "max" : [
                1,
                -0.4999999403953552,
                1
            ],
            "min" : [
                -1,
                -0.5000001192092896,
                -1
            ],
            "type" : "VEC3"
        },
        {
            "bufferView" : 9,
            "componentType" : 5126,
            "count" : 4,
            "type" : "VEC3"
        },
        {
            "bufferView" : 10,
            "componentType" : 5126,
            "count" : 4,
            "type" : "VEC2"
        },
        {
            "bufferView" : 11,
            "componentType" : 5123,
            "count" : 6,
            "type" : "SCALAR"
        },
        {
            "bufferView" : 12,
            "componentType" : 5126,
            "count" : 240,
            "max" : [
                -0.2490464150905609,
                -1.5504370765029307e-07,
                0.5539900064468384
            ],
            "min" : [
                -0.7245753407478333,
                -0.5000001192092896,
                0.053989995270967484
            ],
            "type" : "VEC3"
        },
        {
            "bufferView" : 13,
            "componentType" : 5126,
            "count" : 240,
            "type" : "VEC3"
        },
        {
            "bufferView" : 14,
            "componentType" : 5126,
            "count" : 240,
            "type" : "VEC2"
        },
        {
            "bufferView" : 15,
            "componentType" : 5123,
            "count" : 240,
            "type" : "SCALAR"
        },
        {
            "bufferView" : 16,
            "componentType" : 5126,
            "count" : 637,
            "max" : [
                0.679751992225647,
                -0.026085345074534416,
                0.3522893786430359
            ],
            "min" : [
                0.12214025855064392,
                -0.5003795027732849,
                -0.2053222954273224
            ],
            "type" : "VEC3"
        },
        {
            "bufferView" : 17,
            "componentType" : 5126,
            "count" : 637,
            "type" : "VEC3"
        },
        {
            "bufferView" : 18,
            "componentType" : 5126,
            "count" : 637,
            "type" : "VEC2"
        },
        {
            "bufferView" : 19,
            "componentType" : 5123,
            "count" : 3456,
            "type" : "SCALAR"
        },
        {
            "bufferView" : 20,
            "componentType" : 5126,
            "count" : 4,
            "max" : [
                1,
                0.5000000596046448,
                -0.9999998211860657
            ],
            "min" : [
                -1,
                -0.4999999701976776,
                -1.0000001192092896
            ],
            "type" : "VEC3"
        },
        {
            "bufferView" : 21,
            "componentType" : 5126,
            "count" : 4,
            "type" : "VEC3"
        },
        {
            "bufferView" : 22,
            "componentType" : 5126,
            "count" : 4,
            "type" : "VEC2"
        },
        {
            "bufferView" : 23,
            "componentType" : 5126,
            "count" : 4,
            "max" : [
                -0.9999999403953552,
                0.5000000596046448,
                1
            ],
            "min" : [
                -1.0000001192092896,
                -0.5000000596046448,
                -1
            ],
            "type" : "VEC3"
        },
        {
            "bufferView" : 24,
            "componentType" : 5126,
            "count" : 4,
            "type" : "VEC3"
        },
        {
            "bufferView" : 25,
            "componentType" : 5126,
            "count" : 4,
            "type" : "VEC2"
        },
        {
            "bufferView" : 26,
            "componentType" : 5123,
            "count" : 6,
            "type" : "SCALAR"
        }
    ],
    "bufferViews" : [
        {
            "buffer" : 0,
            "byteLength" : 780,
            "byteOffset" : 0
        },
        {
            "buffer" : 0,
            "byteLength" : 780,
            "byteOffset" : 780
        },
        {
            "buffer" : 0,
            "byteLength" : 520,
            "byteOffset" : 1560
        },
        {
            "buffer" : 0,
            "byteLength" : 372,
            "byteOffset" : 2080
        },
        {
            "buffer" : 0,
            "byteLength" : 288,
            "byteOffset" : 2452
        },
        {
            "buffer" : 0,
            "byteLength" : 288,
            "byteOffset" : 2740
        },
        {
            "buffer" : 0,
            "byteLength" : 192,
            "byteOffset" : 3028
        },
        {
            "buffer" : 0,
            "byteLength" : 72,
            "byteOffset" : 3220
        },
        {
            "buffer" : 0,
            "byteLength" : 48,
            "byteOffset" : 3292
        },
        {
            "buffer" : 0,
            "byteLength" : 48,
            "byteOffset" : 3340
        },
        {
            "buffer" : 0,
            "byteLength" : 32,
            "byteOffset" : 3388
        },
        {
            "buffer" : 0,
            "byteLength" : 12,
            "byteOffset" : 3420
        },
        {
            "buffer" : 0,
            "byteLength" : 2880,
            "byteOffset" : 3432
        },
        {
            "buffer" : 0,
            "byteLength" : 2880,
            "byteOffset" : 6312
        },
        {
            "buffer" : 0,
            "byteLength" : 1920,
            "byteOffset" : 9192
        },
        {
            "buffer" : 0,
            "byteLength" : 480,
            "byteOffset" : 11112
        },
        {
            "buffer" : 0,
            "byteLength" : 7644,
            "byteOffset" : 11592
        },
        {
            "buffer" : 0,
            "byteLength" : 7644,
            "byteOffset" : 19236
        },
        {
            "buffer" : 0,
            "byteLength" : 5096,
            "byteOffset" : 26880
        },
        {
            "buffer" : 0,
            "byteLength" : 6912,
            "byteOffset" : 31976
        },
        {
            "buffer" : 0,
            "byteLength" : 48,
            "byteOffset" : 38888
        },
        {
            "buffer" : 0,
            "byteLength" : 48,
            "byteOffset" : 38936
        },
        {
            "buffer" : 0,
            "byteLength" : 32,
            "byteOffset" : 38984
        },
        {
            "buffer" : 0,
            "byteLength" : 48,
            "byteOffset" : 39016
        },
        {
            "buffer" : 0,
            "byteLength" : 48,
            "byteOffset" : 39064
        },
        {
            "buffer" : 0,
            "byteLength" : 32,
            "byteOffset" : 39112
        },
        {
            "buffer" : 0,
            "byteLength" : 12,
            "byteOffset" : 39144
        }
    ],
    "buffers" : [
        {
            "byteLength" : 39156,
            "uri" : "normal_tests.bin"
        }
    ]
}
